<?xml version="1.0" encoding="UTF-8"?>
<svg version="1.1" viewBox="0 0 2048 2048" width="512" height="512" xmlns="http://www.w3.org/2000/svg">
<path transform="translate(1681,64)" d="m0 0h12l21 2 19 4 20 7 16 8 12 7 16 12 12 11 11 12 12 17 8 14 8 19 10 30 13 41 11 36 2 10v19l-3 9-6 9-9 8-15 7-63 21-16 6-46 15-64 20-36 12-46 15-101 32-54 17-34 10-72 23-180 57-57 18-36 12-59 19-57 18-29 9-31 10-32 10-31 10-63 20-48 15-31 9-34 11-255 81 7 22 4 23v8h1511l17 3 16 6 13 8 13 11 10 11 8 13 7 16 4 16 1 9v308l-2 2-1 547-2 22-6 25-6 16-11 21-9 13-9 11-11 12-14 11-10 7-15 9-19 8-21 6-17 3-12 1-57 1h-1359l-127-1-19-2-21-5-18-7-16-8-16-10-14-12-10-9-9-11-11-15-10-18-8-20-5-19-3-21-1-18-1-810-7-8-9-10-11-15-10-17-8-20-5-18-3-20v-27l4-25 8-24 8-17 1-1v-7l-12-37-6-23-3-20v-29l4-25 6-19 7-17 9-16 10-14 13-15 13-12 15-11 16-9 15-7 36-12 73-23 52-17 199-63 123-39 51-16 64-20 53-17 183-58 38-12 62-20 164-52 164-52 58-18 47-15 95-30 20-5 13-2z" fill="#55A1FD"/>
<path transform="translate(1681,64)" d="m0 0h12l21 2 19 4 20 7 16 8 12 7 16 12 12 11 11 12 12 17 8 14 8 19 10 30 13 41 11 36 2 10v19l-3 9-6 9-9 8-15 7-63 21-16 6-46 15-64 20-36 12-46 15-101 32-54 17-34 10-72 23-180 57-57 18-36 12-59 19-57 18-29 9-31 10-32 10-31 10-63 20-48 15-31 9-34 11-255 81 7 22 4 23v8h1511l13 2v1h-73l-25 1-19 38-11 23-29 58-9 19-52 104-11 23-14 28-1 1h-382l2-6 8-15 10-21 10-19 47-94 9-17 61-122-162-1h-109l-68 1-9 16-28 52-13 23-7 14-12 22-14 26-8 14-6 12-24 44-14 26-15 28-8 14-2 3h-415l1-5 11-15 50-75 8-11 14-21 19-28 8-12 11-16 17-25 8-12 21-31 19-28 9-13 1-2-326-2-1 6-1 19-4 22-7 21-8 17-10 16-9 11-12 13-15 12-14 9-15 8-18 7-25 6-14 2h-19l-24-4-25-7-12-5-20-11-10-7-8-6-9-10-7-8-10-13-8-13-8-16-7-21-4-20-1-8v-27l4-25 8-24 8-17 1-1v-7l-12-37-6-23-3-20v-29l4-25 6-19 7-17 9-16 10-14 13-15 13-12 15-11 16-9 15-7 36-12 73-23 52-17 199-63 123-39 51-16 64-20 53-17 183-58 38-12 62-20 164-52 164-52 58-18 47-15 95-30 20-5 13-2z" fill="#CCDAFD"/>
<path transform="translate(389,870)" d="m0 0 216 1 111 1-3 6-14 20-12 18-17 25-8 12-21 31-11 16-8 12-19 28-17 25-22 33-8 11-29 44-8 11-1 3h415l2-5 13-23 14-27 10-18 8-14 6-12 12-22 14-26 8-14 7-14 13-23 7-14 18-33 14-26 11-20 3-4 68-1h109l163 1-4 10-15 29-40 80-9 17-46 92-10 19-11 23-10 19-3 6 382-1 18-36 11-23 36-72 11-23 9-17 11-23 17-34 11-23 21-42 1-1 25-1h64l13 1 16 6 13 8 13 11 10 11 8 13 7 16 4 16 1 9v308l-1 1-637 1h-761l-92-1-34-1-16-2-8-3-12-7-3-2v-2l-4-2-8-11-4-10-2-9-1-15v-34l3-5h-287l-2-2v-166l11 7 14 9 15 8 17 6 22 6 20 3h19l24-4 17-5 16-6 17-9 16-11 14-12 11-12 10-14 10-18 8-20 5-19 2-13 1-19z" fill="#498DFD"/>
<path transform="translate(1681,64)" d="m0 0h12l21 2 19 4 20 7 16 8 12 7 16 12 12 11 11 12 12 17 8 14 8 19 10 30 13 41 11 36 2 10v19l-3 9-6 9-9 8-15 7-63 21-16 6-46 15-64 20-36 12-46 15-101 32-54 17-34 10-72 23-180 57-57 18-28 9h-6l-5-4-39-26-22-15-18-12-44-29-71-48-60-40-37-25-24-16-16-11-10-6 1-2 70-22 50-16 183-58 38-12 62-20 164-52 164-52 58-18 47-15 95-30 20-5 13-2z" fill="#CCDAFD"/>
<path transform="translate(700,368)" d="m0 0 6 2 19 13 27 18 43 29 54 36 80 54 35 23 18 12 43 29 15 10 8 6 3 2-36 12-38 12-31 10-45 14-31 10-32 10-31 10-63 20-48 15-9 2-4-4-20-11-24-14-25-14-24-14-20-12-22-13-28-16-26-15-21-12-26-15-24-14-28-16-52-30-22-13-15-9v-2l40-13 309-98z" fill="#CCDAFD"/>
<path transform="translate(1066,252)" d="m0 0 6 1 17 12 19 13 16 11 23 16 24 16 11 8 38 26 20 14 38 26 16 11 19 14 24 16 11 8 38 26 16 11 8 6-3 2-63 20-205 65-57 18-28 9h-6l-5-4-39-26-22-15-18-12-44-29-71-48-60-40-37-25-24-16-16-11-10-6 1-2 70-22 50-16 183-58 38-12z" fill="#676666"/>
<path transform="translate(1366,869)" d="m0 0h532l13 2v1h-73l-25 1-19 38-11 23-29 58-9 19-52 104-11 23-14 28-1 1h-382l2-6 8-15 10-21 10-19 47-94 9-17 61-122h2v-2l-68-1z" fill="#CCDAFD"/>
<path transform="translate(389,870)" d="m0 0 216 1 111 1-3 6-14 20-12 18-17 25-8 12-21 31-11 16-8 12-19 28-17 25-22 33-8 11-29 44-10 13-1 1h-383l-13-1-2-1v-165l11 7 14 9 15 8 17 6 22 6 20 3h19l24-4 17-5 16-6 17-9 16-11 14-12 11-12 10-14 10-18 8-20 5-19 2-13 1-19z" fill="#666565"/>
<path transform="translate(303,494)" d="m0 0 4 1 23 13 22 13 26 15 24 14 25 14 22 13 26 15 28 16 24 14 25 14 40 24 26 15 28 16 19 11 18 10 4 3v2l-81 26-51 16-72 23-38 12-51 16-16 5h-3l-10-19-8-12-8-10-9-10-9-9-16-12-18-10-16-7-14-4-19-4-8-1h-33l-20 4-20 6-21 10-12 8-12 9-12 11-8 8-10 13-5 6-2-2-12-37-6-23-3-20v-29l4-25 6-19 7-17 9-16 10-14 13-15 13-12 15-11 16-9 15-7 36-12 73-23z" fill="#676666"/>
<path transform="translate(1161,871)" d="m0 0h109l163 1-4 10-15 29-40 80-9 17-46 92-10 19-11 23-10 19-4 6h-350l1-5 13-23 14-27 10-18 8-14 6-12 12-22 14-26 8-14 7-14 13-23 7-14 18-33 14-26 11-20 3-4z" fill="#666565"/>
<path transform="translate(207,716)" d="m0 0h33l19 3 19 5 15 6 19 10 16 12 10 9 10 10 13 17 12 21 3 7 7 22 4 23 1 16-1 19-4 22-7 21-8 17-10 16-9 11-12 13-15 12-14 9-15 8-18 7-25 6-14 2h-19l-24-4-25-7-12-5-20-11-10-7-8-6-9-10-7-8-10-13-8-13-8-16-7-21-4-20-1-8v-27l4-25 8-24 8-17 3-7 8-10 9-11 14-14 13-10 17-11 19-9 20-6z" fill="#FEC566"/>
<path transform="translate(1838,871)" d="m0 0h64l13 1 16 6 13 8 13 11 10 11 8 13 7 16 4 16 1 9v205h-319l1-5 16-32 11-23 36-72 11-23 9-17 11-23 17-34 11-23 21-42 1-1z" fill="#676666"/>
<path transform="translate(1681,64)" d="m0 0h12l21 2 19 4 20 7 16 8 12 7 16 12 12 11 11 12 12 17 8 14 8 19 10 30 13 41 11 36 2 10v19l-3 9-6 9-9 8-15 7-63 21-4-2-11-9-24-18-21-16-16-12-21-16-16-12-21-16-19-14-18-14-20-15-17-13-16-12-21-16-19-14-13-10-21-16-19-14-2-4 39-12 47-15 57-18 29-9 19-4z" fill="#676666"/>
<path transform="translate(294,1507)" d="m0 0h904l10 4 7 6 5 8 3 14-2 10-5 9-7 7-9 4-5 1h-899l-10-4-8-7-4-5-3-6v-19l5-10 8-8 6-3z" fill="#666565"/>
<path transform="translate(257,625)" d="m0 0h21l20 4 21 6 24 10 14 8 14 10 12 9 5 4v2l4 2 8 8 8 10 1 2 8-1 31-10 32-10 31-10 36-12 19-6h2v-3l-4-2 3-1 25 15 26 15 28 16 19 11 18 10 4 3v2l-81 26-51 16-72 23-38 12-51 16-16 5h-3l-10-19-8-12-8-10-9-10-9-9-16-12-18-10-16-7-3-1v-2l-16-4-18-3-10-1-25-1-2-5-2-16 1-15 3-12 8-16 5-6h2l2-4 13-9 13-5z" fill="#4D4D4D"/>
<path transform="translate(907,506)" d="m0 0 9 5 43 29 16 10 17 12 44 29 11 8 4 3-36 12-38 12-31 10-45 14-31 10-32 10-31 10-63 20-48 15-9 2-4-4-20-11-24-14-25-14-24-14-10-6 3-5 1-3 20-7 30-9 72-23 36-12 37-12 35-11 114-38 5-5-5-6-12-9-9-6z" fill="#BBCEFD"/>
<path transform="translate(1243,373)" d="m0 0 4 1 12 8 19 13 16 11 19 14 24 16 11 8 38 26 16 11 8 6-3 2-63 20-205 65-57 18-28 9h-6l-5-4-39-26-22-15-18-12-20-13 1-3 17-5 25-8 45-14 31-10 56-18 44-14 30-10 43-14 24-8 31-10 8-2v-3l-11-7-14-10-24-16-7-5z" fill="#4D4D4D"/>
<path transform="translate(1554,334)" d="m0 0h15l15 5 12 7 12 11 5 6 8 13 8 16 8 6 3 3 1 6-2 7-9 1-3 3h-3l-1 3-43 14-101 32-54 17-15 4-15-11-44-30-23-16-19-13 1-4h2l1-3 20-7 20-6 29-9 37-12 41-14 40-13 26-8z" fill="#BCCFFD"/>
<path transform="translate(631,1696)" d="m0 0h25l12 1 10 4 9 9 5 13v10l-3 9-6 9-7 6-6 2-8 1h-73l-293-1-8-3-10-9-5-9-1-4v-13l4-10 7-8 12-6z" fill="#666565"/>
<path transform="translate(388,869)" d="m0 0h978l66 1 2 1-1 2-163-1h-109l-68 1-3 3-1-3-214-2-77 1h-193l-217-1z" fill="#83B0FD"/>
<path transform="translate(531,1508)" d="m0 0h467v1l-13 1v1l-53 1h-87l-104-1v-1l-210-1z" fill="#4D4D4D"/>
<path transform="translate(1091,869)" d="m0 0h275l66 1 2 1-1 2-163-1h-177z" fill="#4A90FD"/>
<path transform="translate(1632,869)" d="m0 0h266l13 2v1h-73l-25 1-3 6-2-2-2-3-3-1-171-2z" fill="#B7CCFD"/>
<path transform="translate(1860,1963)" d="m0 0 2 1v2l4 1-1 4-5 2-10 5-7 2h-6l-5-2-10 1-6 2-8-1-2-1v-2l-5-1-2-2 4-4 6-2h13l19-3 7-1 11 2z" fill="#498DFE"/>
<path transform="translate(1366,869)" d="m0 0h266v1l-158 2h-40l-2-1-66-1z" fill="#BBCEFD"/>
<path transform="translate(672,869)" d="m0 0h203v1l-9 1-68 1h-81l-1-1-44-1z" fill="#BCCFFE"/>
<path transform="translate(1956,1883)" d="m0 0h2l-1 4-1 3 1 5-5 8-8 14h-2v2l-8 6-4-1 2-8 4-6h2l1-4 7-10 5-6z" fill="#498DFE"/>
<path transform="translate(1675,282)" d="m0 0 9 6 21 16 16 12 21 16 28 21 13 10 1 2-5-1-6-4-10-7-2-3-4-2-1-2-9-5-2-3-4-2v-2l-5-2-9-7-2-1v-2l-4-2-7-5v-2l-4-1-5-5-6-4-13-10-8-6v-2l-3-1z" fill="#A4C4FD"/>
<path transform="translate(1091,869)" d="m0 0h233v1l-226 1-5 1z" fill="#6FACFD"/>
<path transform="translate(1794,869)" d="m0 0h104l13 2v1h-98l-2-1-17-1z" fill="#4C91FD"/>
<path transform="translate(1119,235)" d="m0 0h6l-1 2-9 1v2l-20 7-4 2-10 2-6 3h-3l-3-3z" fill="#BDCFFD"/>
<path transform="translate(340,482)" d="m0 0h5l-2 1v2l-9 2-4 2-7 2-5 4-3 2-1 2-5-2-3-2v-2z" fill="#B5CCFD"/>
<path transform="translate(1243,373)" d="m0 0 4 1 12 8 19 13 16 11 7 5-2 1-11-7-14-10-24-16-7-5z" fill="#555"/>
<path transform="translate(1412,142)" d="m0 0 4 1-6 3-17 5-20 7-9 2 1-3z" fill="#BFD1FD"/>
<path transform="translate(1756,344)" d="m0 0 5 2 13 10 10 8-4 1-11-8-6-4-2-3-4-2z" fill="#A4C4FD"/>
<path transform="translate(526,423)" d="m0 0 4 1-3 2-7 2-10 3-21 7h-5l1-2z" fill="#BED0FD"/>
<path transform="translate(1675,282)" d="m0 0 9 6 21 16 9 7v2l-4-1-5-5-6-4-13-10-8-6v-2l-3-1z" fill="#9FC2FD"/>
<path transform="translate(1258,191)" d="m0 0 4 1-3 2-8 2-6 2h-4l-1 2-21 6-3-1 10-4z" fill="#BFD1FD"/>
<path transform="translate(387,467)" d="m0 0h6l-1 2-8 2-3 2-6 1-4 2h-2l-9 3h-4v-2z" fill="#B4CBFD"/>
<path transform="translate(564,411)" d="m0 0 4 1-12 5-8 2-3 2h-5l-4 2-3-1-1 2v-3z" fill="#BDD0FD"/>
<path transform="translate(1350,162)" d="m0 0h3v2l-6 2h-6v2l-11 3-9 3-7 1v-2z" fill="#BED1FD"/>
<path transform="translate(360,967)" d="m0 0h2l-1 5-9 12h-2l-2 4-5 4v-3l12-14z" fill="#545454"/>
<path transform="translate(651,1697)" d="m0 0h17l10 4 9 9 3 9-3-3v-3h-2l-2-5h-2l-5-5-6-3-19-2z" fill="#525151"/>
<path transform="translate(1195,1508)" d="m0 0h7l8 5 5 4 3 5-1 2-2-4-6-1-3-3 1-4-12-3z" fill="#525252"/>
<path transform="translate(463,443)" d="m0 0h6l-1 2-9 1v2l-10 3-4-1-1 2v-3z" fill="#BCCFFD"/>
<path transform="translate(1465,467)" d="m0 0h4v3l-19 6-3-1 4-1v-2l12-2v-2z" fill="#CFDCFD"/>
<path transform="translate(1447,131)" d="m0 0h5v2l-9 1v2l-10 3-4-1-1 2v-3z" fill="#BDD0FD"/>
<path transform="translate(340,482)" d="m0 0h5l-2 1v2l-9 2-4 2-4 1-2-3z" fill="#BED1FD"/>
<path transform="translate(627,391)" d="m0 0h6l-1 2-9 2-4 2-3-1v2h-7v2h-2l1-3z" fill="#BED0FD"/>
<path transform="translate(1384,151)" d="m0 0 4 1-12 5-12 3 1-3z" fill="#BDD0FD"/>
<path transform="translate(1207,207)" d="m0 0h7l-2 2-9 3-4 1-3-1v2l-5 1 1-3z" fill="#B8CDFD"/>
<path transform="translate(602,399)" d="m0 0 3 1-2 2-8 2-6 2-7 1 1-2z" fill="#BFD1FD"/>
<path transform="translate(1675,282)" d="m0 0 9 6 9 7-3 1-9-7-3-2v-2l-3-1z" fill="#97BEFD"/>
<path transform="translate(746,695)" d="m0 0h7v2l-13 4-2-1z" fill="#CEDBFD"/>
<path transform="translate(1281,399)" d="m0 0 4 1 16 11-2 1-11-7-7-5z" fill="#575656"/>
<path transform="translate(1641,256)" d="m0 0 9 6 8 6-3 1-13-10z" fill="#9DC1FD"/>
<path transform="translate(368,473)" d="m0 0h2l-2 4-8 2h-4v-2z" fill="#BBCFFD"/>
<path transform="translate(1630,414)" d="m0 0h8v2l-12 4h-2v-2h3l1-3z" fill="#CEDCFD"/>
<path transform="translate(696,711)" d="m0 0 6 1-3 2-10 2 1-3z" fill="#CDDBFD"/>
<path transform="translate(907,506)" d="m0 0 9 5 7 5-3 1-13-9z" fill="#98BFFD"/>
<path transform="translate(1410,483)" d="m0 0 11 1-3 2-8 2-1-4z" fill="#C5D7FD"/>
<path transform="translate(497,432)" d="m0 0m-3 1 3 1-1 2-7 2h-5l1-2z" fill="#C0D1FD"/>
<path transform="translate(1075,249)" d="m0 0 4 1-4 5-5-2-1-2z" fill="#ACC8FD"/>
<path transform="translate(834,668)" d="m0 0h7l-3 2-9 3-3-1z" fill="#C9D8FD"/>
<path transform="translate(1611,233)" d="m0 0 8 6 6 4-3 1-11-8z" fill="#9AC0FD"/>
<path transform="translate(734,699)" d="m0 0h3v3l-10 3 1-3z" fill="#D1DEFD"/>
<path transform="translate(991,619)" d="m0 0 2 2-13 4-2-1 2-2z" fill="#CEDCFD"/>
<path transform="translate(1478,463)" d="m0 0h3l1 3-11 3 1-3h4v-2z" fill="#D1DEFD"/>
<path transform="translate(1592,217)" d="m0 0 4 2 8 6-3 1-9-7z" fill="#565555"/>
</svg>
